<svg width="25" height="23" viewBox="0 0 25 23" fill="none" xmlns="http://www.w3.org/2000/svg">
<path d="M16.2123 18.5004C16.2123 18.5964 16.3082 18.6826 16.4582 18.6826C16.6056 18.6826 16.7247 18.6107 16.7247 18.5004C16.7247 18.4161 16.6045 18.3349 16.4748 18.3349C16.3274 18.3235 16.2123 18.3946 16.2123 18.5004ZM17.6811 18.2842C17.7151 18.3802 17.6213 18.5004 17.4652 18.5125C17.345 18.5605 17.2023 18.5125 17.186 18.4286C17.152 18.3326 17.2339 18.2128 17.3851 18.1788C17.5053 18.1561 17.6481 18.1901 17.6813 18.2748L17.6811 18.2842ZM15.5985 18.2124C15.7292 18.2464 15.8314 18.3326 15.8144 18.4453C15.803 18.5295 15.6669 18.5927 15.5309 18.5654C15.4001 18.5314 15.3026 18.4453 15.3196 18.3496C15.3309 18.2536 15.4502 18.2022 15.5992 18.2188L15.5985 18.2124ZM12.4916 0.057943C19.0229 0.057943 24.0473 5.03563 24.0473 11.6176C24.0473 16.8578 20.7583 21.3362 16.0471 22.9404C15.4328 23.0364 15.2169 22.6774 15.2169 22.3645C15.2169 22.0811 15.2282 20.4471 15.2282 19.4523C15.2282 19.4523 18.5341 20.1638 19.2283 18.047C19.2283 18.047 19.7576 16.6587 20.5533 16.3116C20.5533 16.3116 21.6285 15.5665 20.4574 15.5833C20.4574 15.5833 19.2803 15.6793 18.6373 16.8066C17.6126 18.6436 15.873 18.1147 15.2128 17.7966C15.0926 17.0383 14.7856 16.5097 14.4557 16.1965C17.0843 15.8964 19.7469 15.515 19.7469 10.969C19.7469 9.66523 19.3833 9.00074 18.6382 8.17525C18.7584 7.87894 19.1505 6.60487 18.5074 4.9669C17.5295 4.65396 15.2651 6.24091 15.2651 6.24091C14.3208 5.97786 13.2966 5.82579 12.3061 5.82579C11.2815 5.82579 10.2703 5.97808 9.33055 6.24091C9.33055 6.24091 7.06187 4.65362 6.07145 4.9669C5.42828 6.62184 5.822 7.87898 5.95126 8.17525C5.18935 9.01752 4.72794 9.66523 4.72794 10.969C4.72794 15.5319 7.50473 15.896 10.1502 16.1965C9.70139 16.5734 9.3377 17.2716 9.3377 18.3933C9.3377 19.9806 9.34901 21.9658 9.34901 22.3637C9.34901 22.66 9.13783 23.0416 8.52362 22.9228C3.81247 21.3355 0.604004 16.8572 0.604004 11.6169C0.604004 5.03488 5.92901 0.057251 12.4771 0.057251L12.4916 0.057943ZM19.4504 16.3796C19.5222 16.4276 19.5221 16.5452 19.4163 16.6257C19.3566 16.71 19.2343 16.7459 19.1704 16.6737C19.0986 16.6257 19.1223 16.5263 19.2043 16.4242C19.264 16.3645 19.3866 16.3316 19.4504 16.3796ZM19.9628 15.9994C20.0108 16.0591 19.9515 16.1468 19.8668 16.1815C19.7825 16.2295 19.7012 16.2295 19.6509 16.1475C19.6169 16.0995 19.6849 16.0167 19.7469 15.9653C19.867 15.954 19.9245 15.954 19.9582 15.9994H19.9628ZM18.4262 17.6839C18.5105 17.7682 18.4743 17.8997 18.3544 17.9803C18.2584 18.1004 18.1251 18.1159 18.0578 18.0282C17.986 17.9802 18.0237 17.8124 18.1295 17.7485C18.2255 17.6283 18.3589 17.6178 18.4262 17.6767V17.6839ZM18.972 16.9892C19.0438 17.0372 19.0438 17.1548 18.972 17.2727C18.8881 17.3687 18.7562 17.4382 18.7056 17.3686C18.6213 17.3206 18.6213 17.1865 18.7056 17.089C18.7774 16.9688 18.8877 16.9163 18.972 16.9892Z" fill="#ECECEC"/>
</svg>
