<svg width="23" height="23" viewBox="0 0 23 23" fill="none" xmlns="http://www.w3.org/2000/svg">
<path d="M21.2671 0.0623779H1.67326C0.780539 0.0623779 0.0522461 0.807555 0.0522461 1.71736V21.328C0.0522461 22.217 0.780425 22.9618 1.67326 22.9618H21.2671C22.1562 22.9618 22.884 22.2167 22.884 21.328V1.71736C22.884 0.806686 22.1557 0.0623779 21.2671 0.0623779ZM6.94739 19.6899H3.57387V8.76067H6.94739V19.6899ZM5.25855 7.27085C4.16672 7.27085 3.29036 6.37819 3.29036 5.30254C3.29036 4.21426 4.16623 3.33861 5.25855 3.33861C6.35042 3.33861 7.22675 4.21449 7.22675 5.30254C7.22675 6.37763 6.35095 7.27085 5.25855 7.27085ZM19.6459 19.6899H16.2723V14.3819C16.2723 13.1079 16.2384 11.4867 14.4861 11.4867C12.7337 11.4867 12.467 12.8623 12.467 14.2676V19.6899H9.08076V8.76067H12.3189V10.2465H12.3669C12.8108 9.38742 13.9204 8.49405 15.5754 8.49405C18.9955 8.49405 19.6431 10.7587 19.6431 13.6878L19.6459 19.6899Z" fill="#ECECEC"/>
</svg>
