<svg width="24" height="23" viewBox="0 0 24 23" fill="none" xmlns="http://www.w3.org/2000/svg">
<path d="M12.3221 0.0623779C6.02373 0.0623779 0.914795 5.18829 0.914795 11.5206C0.914795 17.819 6.02373 22.9618 12.3221 22.9618C18.6375 22.9618 23.7465 17.819 23.7465 11.5206C23.7465 5.18829 18.6375 0.0623779 12.3221 0.0623779ZM17.6302 7.85073C17.4646 9.65387 16.7194 14.0687 16.339 16.0836C16.1735 16.9426 15.8602 17.2258 15.5602 17.2438C14.8835 17.3035 14.3714 16.8119 13.7445 16.3847C12.7367 15.7368 12.1573 15.3264 11.1964 14.6789C10.0745 13.9206 10.7982 13.5234 11.446 12.846C11.6115 12.6804 14.5188 10.0185 14.5697 9.76881C14.581 9.7348 14.581 9.62145 14.5217 9.56967C14.4737 9.50996 14.3561 9.52166 14.3104 9.53565C14.1902 9.56966 12.5877 10.6443 9.48079 12.7273C9.03208 13.0455 8.62183 13.1928 8.24063 13.1928C7.84223 13.1815 7.05155 12.96 6.47128 12.7776C5.75979 12.5448 5.18037 12.414 5.23112 12.0157C5.26514 11.8166 5.52742 11.6054 6.09019 11.3894C9.41293 9.93329 11.6309 8.97676 12.7399 8.51112C15.9145 7.19041 16.5747 6.97457 17.0022 6.95764C17.0982 6.95764 17.3034 6.96895 17.4509 7.08838C17.5352 7.17266 17.5983 7.2876 17.5983 7.40136C17.6323 7.55368 17.6302 7.70326 17.6302 7.85073Z" fill="#ECECEC"/>
</svg>
