<svg width="24" height="23" viewBox="0 0 24 23" fill="none" xmlns="http://www.w3.org/2000/svg">
<path d="M20.1848 3.40205C18.0515 1.23487 15.2069 0.0623779 12.1847 0.0623779C5.94972 0.0623779 0.857605 5.15448 0.857605 11.4232C0.857605 13.4041 1.38683 15.3555 2.36028 17.0782L0.756104 22.9618L6.77511 21.3745C8.41324 22.2852 10.28 22.7629 12.1678 22.7629H12.1791C18.4098 22.7629 23.6035 17.6708 23.6035 11.4232C23.6035 8.37977 22.3124 5.5354 20.179 3.40205H20.1848ZM12.1847 20.8454C10.4788 20.8454 8.82817 20.4014 7.38896 19.5417L7.05885 19.3425L3.48648 20.2701L4.44267 16.778L4.21337 16.4314C3.26909 14.9287 2.77413 13.1932 2.77413 11.424C2.77413 6.21336 7.00699 1.98057 12.1837 1.98057C14.7108 1.98057 17.06 2.95839 18.8293 4.74463C20.5986 6.52668 21.6907 8.89275 21.6907 11.424C21.6907 16.6134 17.3571 20.8454 12.1847 20.8454ZM17.3402 13.7851C17.0609 13.6377 15.6725 12.9596 15.4059 12.8624C15.1599 12.7664 14.962 12.7267 14.7796 13.0098C14.5804 13.2894 14.0512 13.9205 13.8869 14.1148C13.7213 14.314 13.5569 14.3477 13.2737 14.1992C11.589 13.3569 10.5138 12.7093 9.40491 10.8256C9.12523 10.3301 9.70503 10.3637 10.2508 9.27221C10.3351 9.09003 10.2736 8.92559 10.2169 8.77664C10.1451 8.62924 9.58581 7.23581 9.34101 6.66023C9.1252 6.11432 8.87544 6.19471 8.70986 6.17793C8.54432 6.16659 8.36316 6.16662 8.16383 6.16662C7.98166 6.16662 7.66833 6.25087 7.42357 6.53018C7.15711 6.83028 6.42886 7.50803 6.42886 8.89625C6.42886 10.2846 7.43681 11.6392 7.5892 11.8381C7.71997 12.0203 9.57006 14.8984 12.4144 16.1216C14.2177 16.8835 14.9118 16.9472 15.805 16.8164C16.3509 16.7446 17.477 16.1397 17.7056 15.4788C17.9551 14.8141 17.9552 14.2555 17.8712 14.12C17.8115 13.9893 17.6251 13.9258 17.3421 13.7901L17.3402 13.7851Z" fill="#ECECEC"/>
</svg>
